<svg xmlns="http://www.w3.org/2000/svg" width="805" height="600"><rect width="805" height="600" x="0" y="0" fill="#FFFFFF" id="background"/><g transform="translate(402.5,300)" id="viz"><g id="links"><path d="M0,0C-19.189427342047214,43.451304678735376,41.284411252634506,-23.491432215242764,82.56882250526901,-46.98286443048553" fill="none" stroke="#ccc"/><path d="M0,0C-19.189427342047214,43.451304678735376,0.14918796600963294,47.49976571469377,0.2983759320192659,94.99953142938755" fill="none" stroke="#ccc"/><path d="M0,0C-19.189427342047214,43.451304678735376,-45.37941002117171,-14.034213413311791,-90.75882004234342,-28.068426826623583" fill="none" stroke="#ccc"/><path d="M0,0C-19.189427342047214,43.451304678735376,-10.445968774221331,-46.33715287291606,-20.891937548442662,-92.67430574583211" fill="none" stroke="#ccc"/><path d="M82.56882250526901,-46.98286443048553C123.85323375790351,-70.4742966457283,31.337906322664157,-139.01145861874812,41.783875096885545,-185.34861149166417" fill="none" stroke="#ccc"/><path d="M82.56882250526901,-46.98286443048553C123.85323375790351,-70.4742966457283,86.46200260518988,-113.27211530425366,115.28267014025317,-151.0294870723382" fill="none" stroke="#ccc"/><path d="M82.56882250526901,-46.98286443048553C123.85323375790351,-70.4742966457283,124.52254660907244,-69.2848135307542,166.03006214542992,-92.37975137433894" fill="none" stroke="#ccc"/><path d="M82.56882250526901,-46.98286443048553C123.85323375790351,-70.4742966457283,141.8347738036208,-13.753070205438696,189.11303173816106,-18.337426940584926" fill="none" stroke="#ccc"/><path d="M82.56882250526901,-46.98286443048553C123.85323375790351,-70.4742966457283,135.51406944002696,44.07025055299264,180.68542592003595,58.76033407065685" fill="none" stroke="#ccc"/><path d="M0.2983759320192659,94.99953142938755C0.44756389802889884,142.4992971440813,105.69389775948406,95.57745537734164,140.9251970126454,127.43660716978886" fill="none" stroke="#ccc"/><path d="M0.2983759320192659,94.99953142938755C0.44756389802889884,142.4992971440813,56.721668044986856,130.7245285866211,75.62889072664915,174.29937144882814" fill="none" stroke="#ccc"/><path d="M0.2983759320192659,94.99953142938755C0.44756389802889884,142.4992971440813,-1.0218030145293198,142.49633650939768,-1.3624040193724265,189.99511534586355" fill="none" stroke="#ccc"/><path d="M0.2983759320192659,94.99953142938755C0.44756389802889884,142.4992971440813,-57.878569248544046,130.21643990580256,-77.17142566472539,173.62191987440343" fill="none" stroke="#ccc"/><path d="M0.2983759320192659,94.99953142938755C0.44756389802889884,142.4992971440813,-105.09143625353124,96.23949306895781,-140.1219150047083,128.31932409194377" fill="none" stroke="#ccc"/><path d="M-90.75882004234342,-28.068426826623583C-136.13823006351512,-42.102640239935376,-135.04468650579025,45.488269329057,-180.05958200772037,60.651025772076" fill="none" stroke="#ccc"/><path d="M-90.75882004234342,-28.068426826623583C-136.13823006351512,-42.102640239935376,-141.8283467114288,-13.819192056800961,-189.10446228190503,-18.42558940906795" fill="none" stroke="#ccc"/><path d="M-90.75882004234342,-28.068426826623583C-136.13823006351512,-42.102640239935376,-124.10877754876446,-70.02329137759304,-165.4783700650193,-93.36438850345739" fill="none" stroke="#ccc"/><path d="M-90.75882004234342,-28.068426826623583C-136.13823006351512,-42.102640239935376,-85.78760765679024,-113.78372630795944,-114.38347687572033,-151.71163507727925" fill="none" stroke="#ccc"/><path d="M-20.891937548442662,-92.67430574583211C-31.337906322663994,-139.01145861874818,-31.337906322663994,-139.01145861874818,-41.783875096885325,-185.34861149166423" fill="none" stroke="#ccc"/></g><g><circle transform="&#xA;&#9;        rotate(113.82772204366844)&#xA;&#9;        translate(0,0)&#xA;&#9;      " fill="#ccc" r="5"/><circle transform="&#xA;&#9;        rotate(-29.64050756825882)&#xA;&#9;        translate(95,0)&#xA;&#9;      " fill="#d62728" r="5"/><circle transform="&#xA;&#9;        rotate(89.82004516084024)&#xA;&#9;        translate(95,0)&#xA;&#9;      " fill="#2ca02c" r="5"/><circle transform="&#xA;&#9;        rotate(197.18495057414077)&#xA;&#9;        translate(95,0)&#xA;&#9;      " fill="#1f77b4" r="5"/><circle transform="&#xA;&#9;        rotate(257.29595165559573)&#xA;&#9;        translate(95,0)&#xA;&#9;      " fill="#ff7f0e" r="5"/><circle transform="&#xA;&#9;        rotate(-77.29595165559567)&#xA;&#9;        translate(190,0)&#xA;&#9;      " fill="#d62728" r="10"/><circle transform="&#xA;&#9;        rotate(-52.6450594802917)&#xA;&#9;        translate(190,0)&#xA;&#9;      " fill="#d62728" r="4.08248290463863"/><circle transform="&#xA;&#9;        rotate(-29.091727480501795)&#xA;&#9;        translate(190,0)&#xA;&#9;      " fill="#d62728" r="4.08248290463863"/><circle transform="&#xA;&#9;        rotate(-5.5383954807119125)&#xA;&#9;        translate(190,0)&#xA;&#9;      " fill="#d62728" r="4.08248290463863"/><circle transform="&#xA;&#9;        rotate(18.01493651907799)&#xA;&#9;        translate(190,0)&#xA;&#9;      " fill="#d62728" r="4.08248290463863"/><circle transform="&#xA;&#9;        rotate(42.122580694473754)&#xA;&#9;        translate(190,0)&#xA;&#9;      " fill="#2ca02c" r="7.0710678118654755"/><circle transform="&#xA;&#9;        rotate(66.54386924885327)&#xA;&#9;        translate(190,0)&#xA;&#9;      " fill="#2ca02c" r="5.773502691896258"/><circle transform="&#xA;&#9;        rotate(90.41084562762688)&#xA;&#9;        translate(190,0)&#xA;&#9;      " fill="#2ca02c" r="4.08248290463863"/><circle transform="&#xA;&#9;        rotate(113.96417762741677)&#xA;&#9;        translate(190,0)&#xA;&#9;      " fill="#2ca02c" r="4.08248290463863"/><circle transform="&#xA;&#9;        rotate(137.5175096272067)&#xA;&#9;        translate(190,0)&#xA;&#9;      " fill="#2ca02c" r="4.08248290463863"/><circle transform="&#xA;&#9;        rotate(161.3844860059803)&#xA;&#9;        translate(190,0)&#xA;&#9;      " fill="#1f77b4" r="5.773502691896258"/><circle transform="&#xA;&#9;        rotate(185.56510676373773)&#xA;&#9;        translate(190,0)&#xA;&#9;      " fill="#1f77b4" r="5.773502691896258"/><circle transform="&#xA;&#9;        rotate(209.43208314251132)&#xA;&#9;        translate(190,0)&#xA;&#9;      " fill="#1f77b4" r="4.08248290463863"/><circle transform="&#xA;&#9;        rotate(232.98541514230124)&#xA;&#9;        translate(190,0)&#xA;&#9;      " fill="#1f77b4" r="4.08248290463863"/><circle transform="&#xA;&#9;        rotate(257.29595165559573)&#xA;&#9;        translate(190,0)&#xA;&#9;      " fill="#ff7f0e" r="8.16496580927726"/></g><g id="labels"><g transform="&#xA;&#9;        rotate(113.82772204366844)&#xA;&#9;        translate(0,0)&#xA;&#9;        rotate(180)&#xA;&#9;      "><text x="0" y="0" text-anchor="middle" dominant-baseline="text-before-edge" transform="translate(0,0)"><tspan x="6" y="0" dy="0" text-anchor="start" style="font-family: Arial, sans-serif; font-size: 10px; fill: black; font-weight: normal;"/></text></g><g transform="&#xA;&#9;        rotate(-29.64050756825882)&#xA;&#9;        translate(95,0)&#xA;&#9;        rotate(0)&#xA;&#9;      "><text x="0" y="0" text-anchor="middle" dominant-baseline="text-before-edge" transform="translate(0,-5.5)"><tspan x="-6" y="0" dy="0" text-anchor="end" style="font-family: Arial, sans-serif; font-size: 10px; fill: black; font-weight: normal;">S10-Rev23</tspan></text></g><g transform="&#xA;&#9;        rotate(89.82004516084024)&#xA;&#9;        translate(95,0)&#xA;&#9;        rotate(0)&#xA;&#9;      "><text x="0" y="0" text-anchor="middle" dominant-baseline="text-before-edge" transform="translate(0,-5.5)"><tspan x="-6" y="0" dy="0" text-anchor="end" style="font-family: Arial, sans-serif; font-size: 10px; fill: black; font-weight: normal;">L20</tspan></text></g><g transform="&#xA;&#9;        rotate(197.18495057414077)&#xA;&#9;        translate(95,0)&#xA;&#9;        rotate(180)&#xA;&#9;      "><text x="0" y="0" text-anchor="middle" dominant-baseline="text-before-edge" transform="translate(0,-5.5)"><tspan x="6" y="0" dy="0" text-anchor="start" style="font-family: Arial, sans-serif; font-size: 10px; fill: black; font-weight: normal;">A22</tspan></text></g><g transform="&#xA;&#9;        rotate(257.29595165559573)&#xA;&#9;        translate(95,0)&#xA;&#9;        rotate(180)&#xA;&#9;      "><text x="0" y="0" text-anchor="middle" dominant-baseline="text-before-edge" transform="translate(0,-5.5)"><tspan x="6" y="0" dy="0" text-anchor="start" style="font-family: Arial, sans-serif; font-size: 10px; fill: black; font-weight: normal;">IN23</tspan></text></g><g transform="&#xA;&#9;        rotate(-77.29595165559567)&#xA;&#9;        translate(190,0)&#xA;&#9;        rotate(0)&#xA;&#9;      "><text x="0" y="0" text-anchor="middle" dominant-baseline="text-before-edge" transform="translate(0,-5.5)"><tspan x="15" y="0" dy="0" text-anchor="start" style="font-family: Arial, sans-serif; font-size: 10px; fill: black; font-weight: bold;">24</tspan></text></g><g transform="&#xA;&#9;        rotate(-52.6450594802917)&#xA;&#9;        translate(190,0)&#xA;&#9;        rotate(0)&#xA;&#9;      "><text x="0" y="0" text-anchor="middle" dominant-baseline="text-before-edge" transform="translate(0,-5.5)"><tspan x="9.082482904638631" y="0" dy="0" text-anchor="start" style="font-family: Arial, sans-serif; font-size: 10px; fill: black; font-weight: bold;">22</tspan></text></g><g transform="&#xA;&#9;        rotate(-29.091727480501795)&#xA;&#9;        translate(190,0)&#xA;&#9;        rotate(0)&#xA;&#9;      "><text x="0" y="0" text-anchor="middle" dominant-baseline="text-before-edge" transform="translate(0,-5.5)"><tspan x="9.082482904638631" y="0" dy="0" text-anchor="start" style="font-family: Arial, sans-serif; font-size: 10px; fill: black; font-weight: bold;">25</tspan></text></g><g transform="&#xA;&#9;        rotate(-5.5383954807119125)&#xA;&#9;        translate(190,0)&#xA;&#9;        rotate(0)&#xA;&#9;      "><text x="0" y="0" text-anchor="middle" dominant-baseline="text-before-edge" transform="translate(0,-5.5)"><tspan x="9.082482904638631" y="0" dy="0" text-anchor="start" style="font-family: Arial, sans-serif; font-size: 10px; fill: black; font-weight: bold;">23</tspan></text></g><g transform="&#xA;&#9;        rotate(18.01493651907799)&#xA;&#9;        translate(190,0)&#xA;&#9;        rotate(0)&#xA;&#9;      "><text x="0" y="0" text-anchor="middle" dominant-baseline="text-before-edge" transform="translate(0,-5.499999523162842)"><tspan x="9.082482904638631" y="0" dy="0" text-anchor="start" style="font-family: Arial, sans-serif; font-size: 10px; fill: black; font-weight: bold;">28</tspan></text></g><g transform="&#xA;&#9;        rotate(42.122580694473754)&#xA;&#9;        translate(190,0)&#xA;&#9;        rotate(0)&#xA;&#9;      "><text x="0" y="0" text-anchor="middle" dominant-baseline="text-before-edge" transform="translate(0,-5.5)"><tspan x="12.071067811865476" y="0" dy="0" text-anchor="start" style="font-family: Arial, sans-serif; font-size: 10px; fill: black; font-weight: bold;">20</tspan></text></g><g transform="&#xA;&#9;        rotate(66.54386924885327)&#xA;&#9;        translate(190,0)&#xA;&#9;        rotate(0)&#xA;&#9;      "><text x="0" y="0" text-anchor="middle" dominant-baseline="text-before-edge" transform="translate(0,-5.5)"><tspan x="10.773502691896258" y="0" dy="0" text-anchor="start" style="font-family: Arial, sans-serif; font-size: 10px; fill: black; font-weight: bold;">23</tspan></text></g><g transform="&#xA;&#9;        rotate(90.41084562762688)&#xA;&#9;        translate(190,0)&#xA;&#9;        rotate(180)&#xA;&#9;      "><text x="0" y="0" text-anchor="middle" dominant-baseline="text-before-edge" transform="translate(0,-5.5)"><tspan x="-9.082482904638631" y="0" dy="0" text-anchor="end" style="font-family: Arial, sans-serif; font-size: 10px; fill: black; font-weight: bold;">21</tspan></text></g><g transform="&#xA;&#9;        rotate(113.96417762741677)&#xA;&#9;        translate(190,0)&#xA;&#9;        rotate(180)&#xA;&#9;      "><text x="0" y="0" text-anchor="middle" dominant-baseline="text-before-edge" transform="translate(0,-5.5)"><tspan x="-9.082482904638631" y="0" dy="0" text-anchor="end" style="font-family: Arial, sans-serif; font-size: 10px; fill: black; font-weight: bold;">22</tspan></text></g><g transform="&#xA;&#9;        rotate(137.5175096272067)&#xA;&#9;        translate(190,0)&#xA;&#9;        rotate(180)&#xA;&#9;      "><text x="0" y="0" text-anchor="middle" dominant-baseline="text-before-edge" transform="translate(0,-5.5)"><tspan x="-9.082482904638631" y="0" dy="0" text-anchor="end" style="font-family: Arial, sans-serif; font-size: 10px; fill: black; font-weight: bold;">25</tspan></text></g><g transform="&#xA;&#9;        rotate(161.3844860059803)&#xA;&#9;        translate(190,0)&#xA;&#9;        rotate(180)&#xA;&#9;      "><text x="0" y="0" text-anchor="middle" dominant-baseline="text-before-edge" transform="translate(0,-5.5)"><tspan x="-10.773502691896258" y="0" dy="0" text-anchor="end" style="font-family: Arial, sans-serif; font-size: 10px; fill: black; font-weight: bold;">19</tspan></text></g><g transform="&#xA;&#9;        rotate(185.56510676373773)&#xA;&#9;        translate(190,0)&#xA;&#9;        rotate(180)&#xA;&#9;      "><text x="0" y="0" text-anchor="middle" dominant-baseline="text-before-edge" transform="translate(0,-5.5)"><tspan x="-10.773502691896258" y="0" dy="0" text-anchor="end" style="font-family: Arial, sans-serif; font-size: 10px; fill: black; font-weight: bold;">20</tspan></text></g><g transform="&#xA;&#9;        rotate(209.43208314251132)&#xA;&#9;        translate(190,0)&#xA;&#9;        rotate(180)&#xA;&#9;      "><text x="0" y="0" text-anchor="middle" dominant-baseline="text-before-edge" transform="translate(0,-5.5)"><tspan x="-9.082482904638631" y="0" dy="0" text-anchor="end" style="font-family: Arial, sans-serif; font-size: 10px; fill: black; font-weight: bold;">21</tspan></text></g><g transform="&#xA;&#9;        rotate(232.98541514230124)&#xA;&#9;        translate(190,0)&#xA;&#9;        rotate(180)&#xA;&#9;      "><text x="0" y="0" text-anchor="middle" dominant-baseline="text-before-edge" transform="translate(0,-5.5)"><tspan x="-9.082482904638631" y="0" dy="0" text-anchor="end" style="font-family: Arial, sans-serif; font-size: 10px; fill: black; font-weight: bold;">25</tspan></text></g><g transform="&#xA;&#9;        rotate(257.29595165559573)&#xA;&#9;        translate(190,0)&#xA;&#9;        rotate(180)&#xA;&#9;      "><text x="0" y="0" text-anchor="middle" dominant-baseline="text-before-edge" transform="translate(0,-5.5)"><tspan x="-13.16496580927726" y="0" dy="0" text-anchor="end" style="font-family: Arial, sans-serif; font-size: 10px; fill: black; font-weight: bold;">22</tspan></text></g></g></g></svg>