<svg xmlns="http://www.w3.org/2000/svg" width="1064" height="600"><rect width="1064" height="600" x="0" y="0" fill="#FFFFFF" id="background"/><g transform="translate(432,300)" id="viz"><g id="links"><path d="M0,0C-18.990367053615344,43.538671995927494,41.50686908474518,-23.09609964435174,83.01373816949037,-46.19219928870348" fill="none" stroke="#ccc"/><path d="M0,0C-18.990367053615344,43.538671995927494,0.37626071812106365,47.49850974369616,0.7525214362421273,94.99701948739232" fill="none" stroke="#ccc"/><path d="M0,0C-18.990367053615344,43.538671995927494,-45.672618908022955,-13.048443665146578,-91.34523781604591,-26.096887330293157" fill="none" stroke="#ccc"/><path d="M0,0C-18.990367053615344,43.538671995927494,-11.310747277487321,-46.13368613090453,-22.621494554974642,-92.26737226180906" fill="none" stroke="#ccc"/><path d="M83.01373816949037,-46.19219928870348C124.52060725423554,-69.28829893305522,33.932241832461855,-138.40105839271362,45.242989109949136,-184.53474452361817" fill="none" stroke="#ccc"/><path d="M83.01373816949037,-46.19219928870348C124.52060725423554,-69.28829893305522,90.48228232098704,-110.08726804669647,120.64304309464939,-146.78302406226194" fill="none" stroke="#ccc"/><path d="M83.01373816949037,-46.19219928870348C124.52060725423554,-69.28829893305522,126.15788015047288,-66.26038994707868,168.21050686729717,-88.34718659610489" fill="none" stroke="#ccc"/><path d="M83.01373816949037,-46.19219928870348C124.52060725423554,-69.28829893305522,141.992754990097,-12.012806929368107,189.32367332012936,-16.017075905824143" fill="none" stroke="#ccc"/><path d="M83.01373816949037,-46.19219928870348C124.52060725423554,-69.28829893305522,135.49657199198973,44.12401815813636,180.66209598931962,58.83202421084847" fill="none" stroke="#ccc"/><path d="M0.7525214362421273,94.99701948739232C1.1287821543631908,142.49552923108848,105.3821000111627,95.92112904484235,140.5094666815503,127.89483872645646" fill="none" stroke="#ccc"/><path d="M0.7525214362421273,94.99701948739232C1.1287821543631908,142.49552923108848,54.82709820318258,131.53037406857237,73.10279760424343,175.37383209142982" fill="none" stroke="#ccc"/><path d="M0.7525214362421273,94.99701948739232C1.1287821543631908,142.49552923108848,-2.576950892354592,142.47669747751172,-3.435934523139456,189.96892997001564" fill="none" stroke="#ccc"/><path d="M0.7525214362421273,94.99701948739232C1.1287821543631908,142.49552923108848,-57.75462485716919,130.27146006554028,-77.00616647622559,173.69528008738703" fill="none" stroke="#ccc"/><path d="M0.7525214362421273,94.99701948739232C1.1287821543631908,142.49552923108848,-103.84928702908017,97.57856108567968,-138.46571603877356,130.10474811423956" fill="none" stroke="#ccc"/><path d="M-91.34523781604591,-26.096887330293157C-137.01785672406888,-39.145330995439735,-134.2828735497479,47.69024922583672,-179.04383139966384,63.5869989677823" fill="none" stroke="#ccc"/><path d="M-91.34523781604591,-26.096887330293157C-137.01785672406888,-39.145330995439735,-141.9785322620243,-12.179752736460808,-189.30470968269907,-16.239670315281078" fill="none" stroke="#ccc"/><path d="M-91.34523781604591,-26.096887330293157C-137.01785672406888,-39.145330995439735,-125.15104691783003,-68.14297803421204,-166.86806255710673,-90.85730404561605" fill="none" stroke="#ccc"/><path d="M-91.34523781604591,-26.096887330293157C-137.01785672406888,-39.145330995439735,-88.82286395973689,-111.43046638146171,-118.43048527964919,-148.5739551752823" fill="none" stroke="#ccc"/><path d="M-22.621494554974642,-92.26737226180906C-33.93224183246196,-138.4010583927136,-33.93224183246196,-138.4010583927136,-45.242989109949285,-184.53474452361812" fill="none" stroke="#ccc"/></g><g><circle transform="&#xA;&#9;        rotate(113.56550115513974)&#xA;&#9;        translate(0,0)&#xA;&#9;      " fill="#ccc" r="5"/><circle transform="&#xA;&#9;        rotate(-29.09333120932262)&#xA;&#9;        translate(95,0)&#xA;&#9;      " fill="#d62728" r="5"/><circle transform="&#xA;&#9;        rotate(89.54613943996722)&#xA;&#9;        translate(95,0)&#xA;&#9;      " fill="#2ca02c" r="5"/><circle transform="&#xA;&#9;        rotate(195.94437987551782)&#xA;&#9;        translate(95,0)&#xA;&#9;      " fill="#1f77b4" r="5"/><circle transform="&#xA;&#9;        rotate(256.22433351960206)&#xA;&#9;        translate(95,0)&#xA;&#9;      " fill="#ff7f0e" r="5"/><circle transform="&#xA;&#9;        rotate(-76.22433351960211)&#xA;&#9;        translate(190,0)&#xA;&#9;      " fill="#d62728" r="25"/><circle transform="&#xA;&#9;        rotate(-50.58273116768065)&#xA;&#9;        translate(190,0)&#xA;&#9;      " fill="#d62728" r="10.206207261596576"/><circle transform="&#xA;&#9;        rotate(-27.70926374480146)&#xA;&#9;        translate(190,0)&#xA;&#9;      " fill="#d62728" r="10.206207261596576"/><circle transform="&#xA;&#9;        rotate(-4.835796321922317)&#xA;&#9;        translate(190,0)&#xA;&#9;      " fill="#d62728" r="10.206207261596576"/><circle transform="&#xA;&#9;        rotate(18.03767110095687)&#xA;&#9;        translate(190,0)&#xA;&#9;      " fill="#d62728" r="10.206207261596576"/><circle transform="&#xA;&#9;        rotate(42.30915835830143)&#xA;&#9;        translate(190,0)&#xA;&#9;      " fill="#2ca02c" r="17.67766952966369"/><circle transform="&#xA;&#9;        rotate(67.37168193432075)&#xA;&#9;        translate(190,0)&#xA;&#9;      " fill="#2ca02c" r="14.433756729740645"/><circle transform="&#xA;&#9;        rotate(91.03618567587466)&#xA;&#9;        translate(190,0)&#xA;&#9;      " fill="#2ca02c" r="10.206207261596576"/><circle transform="&#xA;&#9;        rotate(113.90965309875384)&#xA;&#9;        translate(190,0)&#xA;&#9;      " fill="#2ca02c" r="10.206207261596576"/><circle transform="&#xA;&#9;        rotate(136.78312052163304)&#xA;&#9;        translate(190,0)&#xA;&#9;      " fill="#2ca02c" r="10.206207261596576"/><circle transform="&#xA;&#9;        rotate(160.44762426318687)&#xA;&#9;        translate(190,0)&#xA;&#9;      " fill="#1f77b4" r="14.433756729740645"/><circle transform="&#xA;&#9;        rotate(184.90316432341558)&#xA;&#9;        translate(190,0)&#xA;&#9;      " fill="#1f77b4" r="14.433756729740645"/><circle transform="&#xA;&#9;        rotate(208.5676680649695)&#xA;&#9;        translate(190,0)&#xA;&#9;      " fill="#1f77b4" r="10.206207261596576"/><circle transform="&#xA;&#9;        rotate(231.44113548784867)&#xA;&#9;        translate(190,0)&#xA;&#9;      " fill="#1f77b4" r="10.206207261596576"/><circle transform="&#xA;&#9;        rotate(256.22433351960206)&#xA;&#9;        translate(190,0)&#xA;&#9;      " fill="#ff7f0e" r="20.412414523193153"/></g><g id="labels"><g transform="&#xA;&#9;        rotate(113.56550115513974)&#xA;&#9;        translate(0,0)&#xA;&#9;        rotate(180)&#xA;&#9;      "><text x="0" y="0" text-anchor="middle" dominant-baseline="text-before-edge" transform="translate(0,0)"><tspan x="6" y="0" dy="0" text-anchor="start" style="font-family: Arial, sans-serif; font-size: 10px; fill: black; font-weight: normal;"/></text></g><g transform="&#xA;&#9;        rotate(-29.09333120932262)&#xA;&#9;        translate(95,0)&#xA;&#9;        rotate(0)&#xA;&#9;      "><text x="0" y="0" text-anchor="middle" dominant-baseline="text-before-edge" transform="translate(0,-5.5)"><tspan x="-6" y="0" dy="0" text-anchor="end" style="font-family: Arial, sans-serif; font-size: 10px; fill: black; font-weight: normal;">S10-Rev23</tspan></text></g><g transform="&#xA;&#9;        rotate(89.54613943996722)&#xA;&#9;        translate(95,0)&#xA;&#9;        rotate(0)&#xA;&#9;      "><text x="0" y="0" text-anchor="middle" dominant-baseline="text-before-edge" transform="translate(0,-5.5)"><tspan x="-6" y="0" dy="0" text-anchor="end" style="font-family: Arial, sans-serif; font-size: 10px; fill: black; font-weight: normal;">L20</tspan></text></g><g transform="&#xA;&#9;        rotate(195.94437987551782)&#xA;&#9;        translate(95,0)&#xA;&#9;        rotate(180)&#xA;&#9;      "><text x="0" y="0" text-anchor="middle" dominant-baseline="text-before-edge" transform="translate(0,-5.5)"><tspan x="6" y="0" dy="0" text-anchor="start" style="font-family: Arial, sans-serif; font-size: 10px; fill: black; font-weight: normal;">A22</tspan></text></g><g transform="&#xA;&#9;        rotate(256.22433351960206)&#xA;&#9;        translate(95,0)&#xA;&#9;        rotate(180)&#xA;&#9;      "><text x="0" y="0" text-anchor="middle" dominant-baseline="text-before-edge" transform="translate(0,-5.5)"><tspan x="6" y="0" dy="0" text-anchor="start" style="font-family: Arial, sans-serif; font-size: 10px; fill: black; font-weight: normal;">IN23</tspan></text></g><g transform="&#xA;&#9;        rotate(-76.22433351960211)&#xA;&#9;        translate(190,0)&#xA;&#9;        rotate(0)&#xA;&#9;      "><text x="0" y="0" text-anchor="middle" dominant-baseline="text-before-edge" transform="translate(0,-5.5)"><tspan x="30" y="0" dy="0" text-anchor="start" style="font-family: Arial, sans-serif; font-size: 10px; fill: black; font-weight: bold;">24</tspan></text></g><g transform="&#xA;&#9;        rotate(-50.58273116768065)&#xA;&#9;        translate(190,0)&#xA;&#9;        rotate(0)&#xA;&#9;      "><text x="0" y="0" text-anchor="middle" dominant-baseline="text-before-edge" transform="translate(0,-5.5)"><tspan x="15.206207261596576" y="0" dy="0" text-anchor="start" style="font-family: Arial, sans-serif; font-size: 10px; fill: black; font-weight: bold;">22</tspan></text></g><g transform="&#xA;&#9;        rotate(-27.70926374480146)&#xA;&#9;        translate(190,0)&#xA;&#9;        rotate(0)&#xA;&#9;      "><text x="0" y="0" text-anchor="middle" dominant-baseline="text-before-edge" transform="translate(0,-5.5)"><tspan x="15.206207261596576" y="0" dy="0" text-anchor="start" style="font-family: Arial, sans-serif; font-size: 10px; fill: black; font-weight: bold;">25</tspan></text></g><g transform="&#xA;&#9;        rotate(-4.835796321922317)&#xA;&#9;        translate(190,0)&#xA;&#9;        rotate(0)&#xA;&#9;      "><text x="0" y="0" text-anchor="middle" dominant-baseline="text-before-edge" transform="translate(0,-5.499999523162842)"><tspan x="15.206207261596576" y="0" dy="0" text-anchor="start" style="font-family: Arial, sans-serif; font-size: 10px; fill: black; font-weight: bold;">23</tspan></text></g><g transform="&#xA;&#9;        rotate(18.03767110095687)&#xA;&#9;        translate(190,0)&#xA;&#9;        rotate(0)&#xA;&#9;      "><text x="0" y="0" text-anchor="middle" dominant-baseline="text-before-edge" transform="translate(0,-5.5)"><tspan x="15.206207261596576" y="0" dy="0" text-anchor="start" style="font-family: Arial, sans-serif; font-size: 10px; fill: black; font-weight: bold;">28</tspan></text></g><g transform="&#xA;&#9;        rotate(42.30915835830143)&#xA;&#9;        translate(190,0)&#xA;&#9;        rotate(0)&#xA;&#9;      "><text x="0" y="0" text-anchor="middle" dominant-baseline="text-before-edge" transform="translate(0,-5.5)"><tspan x="22.67766952966369" y="0" dy="0" text-anchor="start" style="font-family: Arial, sans-serif; font-size: 10px; fill: black; font-weight: bold;">20</tspan></text></g><g transform="&#xA;&#9;        rotate(67.37168193432075)&#xA;&#9;        translate(190,0)&#xA;&#9;        rotate(0)&#xA;&#9;      "><text x="0" y="0" text-anchor="middle" dominant-baseline="text-before-edge" transform="translate(0,-5.5)"><tspan x="19.433756729740644" y="0" dy="0" text-anchor="start" style="font-family: Arial, sans-serif; font-size: 10px; fill: black; font-weight: bold;">23</tspan></text></g><g transform="&#xA;&#9;        rotate(91.03618567587466)&#xA;&#9;        translate(190,0)&#xA;&#9;        rotate(180)&#xA;&#9;      "><text x="0" y="0" text-anchor="middle" dominant-baseline="text-before-edge" transform="translate(0,-5.5)"><tspan x="-15.206207261596576" y="0" dy="0" text-anchor="end" style="font-family: Arial, sans-serif; font-size: 10px; fill: black; font-weight: bold;">21</tspan></text></g><g transform="&#xA;&#9;        rotate(113.90965309875384)&#xA;&#9;        translate(190,0)&#xA;&#9;        rotate(180)&#xA;&#9;      "><text x="0" y="0" text-anchor="middle" dominant-baseline="text-before-edge" transform="translate(0,-5.5)"><tspan x="-15.206207261596576" y="0" dy="0" text-anchor="end" style="font-family: Arial, sans-serif; font-size: 10px; fill: black; font-weight: bold;">22</tspan></text></g><g transform="&#xA;&#9;        rotate(136.78312052163304)&#xA;&#9;        translate(190,0)&#xA;&#9;        rotate(180)&#xA;&#9;      "><text x="0" y="0" text-anchor="middle" dominant-baseline="text-before-edge" transform="translate(0,-5.5)"><tspan x="-15.206207261596576" y="0" dy="0" text-anchor="end" style="font-family: Arial, sans-serif; font-size: 10px; fill: black; font-weight: bold;">25</tspan></text></g><g transform="&#xA;&#9;        rotate(160.44762426318687)&#xA;&#9;        translate(190,0)&#xA;&#9;        rotate(180)&#xA;&#9;      "><text x="0" y="0" text-anchor="middle" dominant-baseline="text-before-edge" transform="translate(0,-5.5)"><tspan x="-19.433756729740644" y="0" dy="0" text-anchor="end" style="font-family: Arial, sans-serif; font-size: 10px; fill: black; font-weight: bold;">19</tspan></text></g><g transform="&#xA;&#9;        rotate(184.90316432341558)&#xA;&#9;        translate(190,0)&#xA;&#9;        rotate(180)&#xA;&#9;      "><text x="0" y="0" text-anchor="middle" dominant-baseline="text-before-edge" transform="translate(0,-5.5)"><tspan x="-19.433756729740644" y="0" dy="0" text-anchor="end" style="font-family: Arial, sans-serif; font-size: 10px; fill: black; font-weight: bold;">20</tspan></text></g><g transform="&#xA;&#9;        rotate(208.5676680649695)&#xA;&#9;        translate(190,0)&#xA;&#9;        rotate(180)&#xA;&#9;      "><text x="0" y="0" text-anchor="middle" dominant-baseline="text-before-edge" transform="translate(0,-5.5)"><tspan x="-15.206207261596576" y="0" dy="0" text-anchor="end" style="font-family: Arial, sans-serif; font-size: 10px; fill: black; font-weight: bold;">21</tspan></text></g><g transform="&#xA;&#9;        rotate(231.44113548784867)&#xA;&#9;        translate(190,0)&#xA;&#9;        rotate(180)&#xA;&#9;      "><text x="0" y="0" text-anchor="middle" dominant-baseline="text-before-edge" transform="translate(0,-5.5)"><tspan x="-15.206207261596576" y="0" dy="0" text-anchor="end" style="font-family: Arial, sans-serif; font-size: 10px; fill: black; font-weight: bold;">25</tspan></text></g><g transform="&#xA;&#9;        rotate(256.22433351960206)&#xA;&#9;        translate(190,0)&#xA;&#9;        rotate(180)&#xA;&#9;      "><text x="0" y="0" text-anchor="middle" dominant-baseline="text-before-edge" transform="translate(0,-5.5)"><tspan x="-25.412414523193153" y="0" dy="0" text-anchor="end" style="font-family: Arial, sans-serif; font-size: 10px; fill: black; font-weight: bold;">22</tspan></text></g></g></g><g id="legend" transform="translate(864,10)"><g transform="translate(5,0)"><g class="legendSize" transform="translate(0,0)"><g class="legendCells" transform="translate(25,16)"><g class="cell" transform="translate(0, 0)"><circle class="swatch" r="0" fill="none" stroke="#ccc"/><text class="label" transform="translate( 30,&#xA;          5)" font-family="&quot;Arial&quot;, sans-serif" font-size="10px"><tspan x="0" dy="0em">0.0</tspan></text></g><g class="cell" transform="translate(0, 41)"><circle class="swatch" r="25" fill="none" stroke="#ccc"/><text class="label" transform="translate( 30,&#xA;          5)" font-family="&quot;Arial&quot;, sans-serif" font-size="10px"><tspan x="0" dy="0em">6.0</tspan></text></g></g><text class="legendTitle" font-family="&quot;Arial&quot;, sans-serif" font-size="12px" font-weight="bold"><tspan x="0" dy="0em">Number of records</tspan></text></g><g class="legendColor" transform="translate(0,115)"><g class="legendCells" transform="translate(0,16)"><g class="cell" transform="translate(0, 0)"><rect class="swatch" height="15" width="15" style="fill: rgb(31, 119, 180);"/><text class="label" transform="translate( 20, 12.5)" font-family="&quot;Arial&quot;, sans-serif" font-size="10px"><tspan x="0" dy="0em">A22</tspan></text></g><g class="cell" transform="translate(0, 21)"><rect class="swatch" height="15" width="15" style="fill: rgb(255, 127, 14);"/><text class="label" transform="translate( 20, 12.5)" font-family="&quot;Arial&quot;, sans-serif" font-size="10px"><tspan x="0" dy="0em">IN23</tspan></text></g><g class="cell" transform="translate(0, 42)"><rect class="swatch" height="15" width="15" style="fill: rgb(44, 160, 44);"/><text class="label" transform="translate( 20, 12.5)" font-family="&quot;Arial&quot;, sans-serif" font-size="10px"><tspan x="0" dy="0em">L20</tspan></text></g><g class="cell" transform="translate(0, 63)"><rect class="swatch" height="15" width="15" style="fill: rgb(214, 39, 40);"/><text class="label" transform="translate( 20, 12.5)" font-family="&quot;Arial&quot;, sans-serif" font-size="10px"><tspan x="0" dy="0em">S10-Rev23</tspan></text></g></g><text class="legendTitle" font-family="&quot;Arial&quot;, sans-serif" font-size="12px" font-weight="bold"><tspan x="0" dy="0em">plan</tspan></text></g></g></g></svg>